<!DOCTYPE svg PUBLIC "-//W3C//DTD SVG 1.1//EN" "http://www.w3.org/Graphics/SVG/1.1/DTD/svg11.dtd">
<!-- Uploaded to: SVG Repo, www.svgrepo.com, Transformed by: SVG Repo Mixer Tools -->
<svg fill="#000000" height="800px" width="800px" version="1.1" id="Layer_1" xmlns="http://www.w3.org/2000/svg" xmlns:xlink="http://www.w3.org/1999/xlink" viewBox="0 0 512.001 512.001" xml:space="preserve">
<g id="SVGRepo_bgCarrier" stroke-width="0"/>
<g id="SVGRepo_tracerCarrier" stroke-linecap="round" stroke-linejoin="round"/>
<g id="SVGRepo_iconCarrier"> <g> <g> <path d="M255.999,0C162.457,0,86.355,76.103,86.355,169.645c0,44.792,17.298,87.042,48.707,118.968l2.479,2.517 c13.123,13.806,22.747,30.309,28.277,48.349h74.973V206.535l-44.213-44.214l21.508-21.508l37.914,37.913l37.914-37.913 l21.508,21.508l-44.213,44.214v132.944h74.971c5.514-17.984,15.094-34.44,28.157-48.222l2.6-2.643 c31.41-31.926,48.707-74.177,48.707-118.968C425.644,76.103,349.542,0,255.999,0z M344.531,169.645 c0-48.818-39.715-88.533-88.532-88.533V50.695c65.589,0,118.949,53.36,118.949,118.95H344.531z"/> </g> </g> <g> <g> <path d="M160.577,369.896v61.98c0,12.383,8.967,22.703,20.747,24.829v11.36c0,24.265,19.671,43.936,43.936,43.936h61.481 c24.265,0,43.936-19.671,43.936-43.936v-11.36c11.78-2.125,20.747-12.446,20.747-24.829v-61.98H160.577z"/> </g> </g> </g>
</svg>